<svg width="40" height="40" viewBox="0 0 40 40" fill="none" xmlns="http://www.w3.org/2000/svg">
<path d="M16.875 3.75H9.375C8.33947 3.75 7.5 4.58947 7.5 5.625V34.375C7.5 35.4105 8.33947 36.25 9.375 36.25H30.625C31.6605 36.25 32.5 35.4105 32.5 34.375V19.375M16.875 3.75H17.5C25.7843 3.75 32.5 10.4657 32.5 18.75V19.375M16.875 3.75C19.9816 3.75 22.5 6.2684 22.5 9.375V11.875C22.5 12.9105 23.3395 13.75 24.375 13.75H26.875C29.9816 13.75 32.5 16.2684 32.5 19.375M15 25L18.75 28.75L25 20" stroke="#71517B" stroke-width="3" stroke-linecap="round" stroke-linejoin="round"/>
</svg>
