<svg width="40" height="40" viewBox="0 0 40 40" fill="none" xmlns="http://www.w3.org/2000/svg">
<path d="M35 18.75V32.5C35 33.8807 33.8807 35 32.5 35H8.75C7.36929 35 6.25 33.8807 6.25 32.5V18.75M20 8.125C20 5.70875 18.0412 3.75 15.625 3.75C13.2088 3.75 11.25 5.70875 11.25 8.125C11.25 10.5412 13.2088 12.5 15.625 12.5C16.8492 12.5 20 12.5 20 12.5M20 8.125C20 9.31707 20 12.5 20 12.5M20 8.125C20 5.70875 21.9588 3.75 24.375 3.75C26.7912 3.75 28.75 5.70875 28.75 8.125C28.75 10.5412 26.7912 12.5 24.375 12.5C23.1508 12.5 20 12.5 20 12.5M20 12.5V35M5.625 18.75H35.625C36.6605 18.75 37.5 17.9105 37.5 16.875V14.375C37.5 13.3395 36.6605 12.5 35.625 12.5H5.625C4.58947 12.5 3.75 13.3395 3.75 14.375V16.875C3.75 17.9105 4.58947 18.75 5.625 18.75Z" stroke="#71517B" stroke-width="3" stroke-linecap="round" stroke-linejoin="round"/>
</svg>
