<svg width="32" height="33" viewBox="0 0 32 33" fill="none" xmlns="http://www.w3.org/2000/svg">
<path d="M15.9973 13.2111C14.1611 13.2111 12.6626 14.7097 12.6626 16.5459C12.6626 18.3821 14.1611 19.8807 15.9973 19.8807C17.8335 19.8807 19.332 18.3821 19.332 16.5459C19.332 14.7097 17.8335 13.2111 15.9973 13.2111ZM25.9989 16.5459C25.9989 15.165 26.0114 13.7965 25.9338 12.4181C25.8563 10.817 25.4911 9.39607 24.3203 8.22528C23.147 7.05198 21.7286 6.68924 20.1275 6.61169C18.7466 6.53413 17.3782 6.54664 15.9998 6.54664C14.6189 6.54664 13.2505 6.53413 11.8721 6.61169C10.271 6.68924 8.85012 7.05449 7.67935 8.22528C6.50608 9.39857 6.14334 10.817 6.06579 12.4181C5.98824 13.799 6.00074 15.1675 6.00074 16.5459C6.00074 17.9243 5.98824 19.2953 6.06579 20.6737C6.14334 22.2748 6.50858 23.6957 7.67935 24.8665C8.85262 26.0398 10.271 26.4026 11.8721 26.4801C13.253 26.5577 14.6214 26.5452 15.9998 26.5452C17.3807 26.5452 18.7491 26.5577 20.1275 26.4801C21.7286 26.4026 23.1495 26.0373 24.3203 24.8665C25.4936 23.6932 25.8563 22.2748 25.9338 20.6737C26.0139 19.2953 25.9989 17.9268 25.9989 16.5459ZM15.9973 21.6769C13.1579 21.6769 10.8664 19.3853 10.8664 16.5459C10.8664 13.7065 13.1579 11.4149 15.9973 11.4149C18.8367 11.4149 21.1282 13.7065 21.1282 16.5459C21.1282 19.3853 18.8367 21.6769 15.9973 21.6769ZM21.3383 12.4031C20.6754 12.4031 20.14 11.8677 20.14 11.2048C20.14 10.5418 20.6754 10.0065 21.3383 10.0065C22.0013 10.0065 22.5366 10.5418 22.5366 11.2048C22.5368 11.3622 22.5059 11.5181 22.4458 11.6636C22.3856 11.8091 22.2974 11.9413 22.1861 12.0526C22.0748 12.1639 21.9426 12.2521 21.7971 12.3123C21.6516 12.3724 21.4957 12.4033 21.3383 12.4031Z" fill="white"/>
</svg>
