<svg width="32" height="33" viewBox="0 0 32 33" fill="none" xmlns="http://www.w3.org/2000/svg">
<path d="M28 8.92165C27.1174 9.31218 26.157 9.59325 25.1676 9.70271C26.1948 9.07678 26.9639 8.08792 27.3308 6.92165C26.367 7.50978 25.3111 7.92219 24.2101 8.14058C23.7499 7.63593 23.1933 7.2339 22.575 6.95954C21.9567 6.68519 21.2899 6.54438 20.6163 6.54591C17.8906 6.54591 15.6986 8.81218 15.6986 11.5932C15.6986 11.9838 15.7447 12.3743 15.8197 12.75C11.7385 12.5311 8.09855 10.5311 5.67864 7.46899C5.23771 8.24152 5.00665 9.12113 5.00949 10.0163C5.00949 11.7678 5.87766 13.3122 7.20154 14.2205C6.42136 14.1889 5.65944 13.969 4.97777 13.5785V13.6406C4.97777 16.0932 6.66795 18.1258 8.92056 18.5932C8.49761 18.7059 8.06251 18.7636 7.62553 18.7648C7.30537 18.7648 7.00252 18.7323 6.69679 18.6879C7.31979 20.6879 9.134 22.1406 11.2943 22.1879C9.60413 23.5459 7.48708 24.3447 5.18832 24.3447C4.77587 24.3447 4.39514 24.3299 4 24.2826C6.18051 25.7175 8.7677 26.5459 11.5539 26.5459C20.599 26.5459 25.5484 18.8595 25.5484 12.1879C25.5484 11.969 25.5484 11.75 25.534 11.5311C26.4915 10.8122 27.3308 9.92165 28 8.92165Z" fill="white"/>
</svg>
