<svg width="40" height="40" viewBox="0 0 40 40" fill="none" xmlns="http://www.w3.org/2000/svg">
<path d="M20 30V21.25M20 21.25C20.8632 21.25 21.701 21.1407 22.5 20.9351M20 21.25C19.1368 21.25 18.2991 21.1407 17.5 20.9351M23.75 33.3991C22.5353 33.6295 21.2817 33.75 20 33.75C18.7183 33.75 17.4647 33.6295 16.25 33.3991M22.5 37.37C21.6784 37.4559 20.8443 37.5 20 37.5C19.1557 37.5 18.3216 37.4559 17.5 37.37M23.75 30V29.6806C23.75 28.0424 24.8471 26.6417 26.2641 25.8196C29.9926 23.6563 32.5 19.621 32.5 15C32.5 8.09644 26.9036 2.5 20 2.5C13.0964 2.5 7.5 8.09644 7.5 15C7.5 19.621 10.0074 23.6563 13.7359 25.8196C15.1529 26.6417 16.25 28.0424 16.25 29.6806V30" stroke="#71517B" stroke-width="3" stroke-linecap="round" stroke-linejoin="round"/>
</svg>
